<svg xmlns="http://www.w3.org/2000/svg" viewBox="0 0 512 512">
  <rect width="512" height="512" rx="110" fill="#0e1a2e"/>
  <g transform="translate(256 250)">
    <circle r="118" fill="none" stroke="#fbbf24" stroke-width="26"/>
    <g fill="#fbbf24">
      <rect x="-17" y="-172" width="34" height="52" rx="10"/>
      <rect x="-17" y="-172" width="34" height="52" rx="10" transform="rotate(45)"/>
      <rect x="-17" y="-172" width="34" height="52" rx="10" transform="rotate(90)"/>
      <rect x="-17" y="-172" width="34" height="52" rx="10" transform="rotate(135)"/>
      <rect x="-17" y="-172" width="34" height="52" rx="10" transform="rotate(180)"/>
      <rect x="-17" y="-172" width="34" height="52" rx="10" transform="rotate(225)"/>
      <rect x="-17" y="-172" width="34" height="52" rx="10" transform="rotate(270)"/>
      <rect x="-17" y="-172" width="34" height="52" rx="10" transform="rotate(315)"/>
    </g>
    <path d="M0,-86 C40,-30 74,8 74,48 a74,74 0 1,1 -148,0 C-74,8 -40,-30 0,-86 Z" fill="#38bdf8"/>
    <ellipse cx="-24" cy="38" rx="14" ry="22" fill="#bae6fd" opacity="0.7" transform="rotate(-18 -24 38)"/>
  </g>
</svg>
